<mxfile host="65bd71144e">
    <diagram id="JPPdQeqTNjMqZFVH53u1" name="페이지-1">
        <mxGraphModel dx="2474" dy="349" grid="1" gridSize="10" guides="1" tooltips="1" connect="1" arrows="1" fold="1" page="1" pageScale="1" pageWidth="827" pageHeight="1169" math="0" shadow="0">
            <root>
                <mxCell id="0"/>
                <mxCell id="1" parent="0"/>
                <mxCell id="49" style="edgeStyle=none;html=1;exitX=1;exitY=0.5;exitDx=0;exitDy=0;entryX=0;entryY=0.5;entryDx=0;entryDy=0;fontFamily=Comic Sans MS;fontSize=18;strokeColor=#457B9D;fontColor=#FFFFFF;sketch=1;labelBackgroundColor=#F1FAEE;" edge="1" parent="1" source="50" target="61">
                    <mxGeometry relative="1" as="geometry"/>
                </mxCell>
                <mxCell id="50" value="Listener" style="swimlane;fontStyle=0;childLayout=stackLayout;horizontal=1;startSize=30;horizontalStack=0;resizeParent=1;resizeParentMax=0;resizeLast=0;collapsible=1;marginBottom=0;fontFamily=Comic Sans MS;fontSize=18;fillColor=#A8DADC;strokeColor=#457B9D;fontColor=#FFFFFF;sketch=1;rounded=1;" vertex="1" parent="1">
                    <mxGeometry x="-1384" y="710" width="190" height="60" as="geometry"/>
                </mxCell>
                <mxCell id="51" value="checkEvent() - void" style="text;strokeColor=none;fillColor=none;align=left;verticalAlign=middle;spacingLeft=4;spacingRight=4;overflow=hidden;points=[[0,0.5],[1,0.5]];portConstraint=eastwest;rotatable=0;fontFamily=Comic Sans MS;fontSize=18;fontColor=#FFFFFF;sketch=1;rounded=1;" vertex="1" parent="50">
                    <mxGeometry y="30" width="190" height="30" as="geometry"/>
                </mxCell>
                <mxCell id="52" value="CardReader" style="swimlane;fontStyle=0;childLayout=stackLayout;horizontal=1;startSize=30;horizontalStack=0;resizeParent=1;resizeParentMax=0;resizeLast=0;collapsible=1;marginBottom=0;fontFamily=Comic Sans MS;fontSize=18;fillColor=#A8DADC;strokeColor=#457B9D;fontColor=#FFFFFF;sketch=1;rounded=1;" vertex="1" parent="1">
                    <mxGeometry x="-1360" y="820" width="274" height="90" as="geometry"/>
                </mxCell>
                <mxCell id="53" value="isCard()" style="text;strokeColor=none;fillColor=none;align=left;verticalAlign=middle;spacingLeft=4;spacingRight=4;overflow=hidden;points=[[0,0.5],[1,0.5]];portConstraint=eastwest;rotatable=0;fontFamily=Comic Sans MS;fontSize=18;fontColor=#FFFFFF;sketch=1;rounded=1;" vertex="1" parent="52">
                    <mxGeometry y="30" width="274" height="30" as="geometry"/>
                </mxCell>
                <mxCell id="54" value="getCardNumber() : Device Data" style="text;strokeColor=none;fillColor=none;align=left;verticalAlign=middle;spacingLeft=4;spacingRight=4;overflow=hidden;points=[[0,0.5],[1,0.5]];portConstraint=eastwest;rotatable=0;fontFamily=Comic Sans MS;fontSize=18;fontColor=#FFFFFF;sketch=1;rounded=1;" vertex="1" parent="52">
                    <mxGeometry y="60" width="274" height="30" as="geometry"/>
                </mxCell>
                <mxCell id="55" value="Monitor" style="swimlane;fontStyle=0;childLayout=stackLayout;horizontal=1;startSize=30;horizontalStack=0;resizeParent=1;resizeParentMax=0;resizeLast=0;collapsible=1;marginBottom=0;fontFamily=Comic Sans MS;fontSize=18;fillColor=#A8DADC;strokeColor=#457B9D;fontColor=#FFFFFF;sketch=1;rounded=1;" vertex="1" parent="1">
                    <mxGeometry x="-1030" y="820" width="190" height="60" as="geometry"/>
                </mxCell>
                <mxCell id="56" value=" print()" style="text;strokeColor=none;fillColor=none;align=left;verticalAlign=middle;spacingLeft=4;spacingRight=4;overflow=hidden;points=[[0,0.5],[1,0.5]];portConstraint=eastwest;rotatable=0;fontFamily=Comic Sans MS;fontSize=18;fontColor=#FFFFFF;sketch=1;rounded=1;" vertex="1" parent="55">
                    <mxGeometry y="30" width="190" height="30" as="geometry"/>
                </mxCell>
                <mxCell id="57" value="" style="endArrow=classic;html=1;fontFamily=Comic Sans MS;fontSize=18;entryX=0.25;entryY=0;entryDx=0;entryDy=0;strokeColor=#457B9D;fontColor=#FFFFFF;sketch=1;labelBackgroundColor=#F1FAEE;" edge="1" parent="1" target="52">
                    <mxGeometry width="50" height="50" relative="1" as="geometry">
                        <mxPoint x="-1291" y="770" as="sourcePoint"/>
                        <mxPoint x="-1244" y="720" as="targetPoint"/>
                        <Array as="points"/>
                    </mxGeometry>
                </mxCell>
                <mxCell id="58" style="edgeStyle=orthogonalEdgeStyle;orthogonalLoop=1;jettySize=auto;html=1;exitX=0.5;exitY=0;exitDx=0;exitDy=0;entryX=1;entryY=0.5;entryDx=0;entryDy=0;strokeColor=#457B9D;fontColor=#FFFFFF;sketch=1;labelBackgroundColor=#F1FAEE;" edge="1" parent="1" source="61" target="65">
                    <mxGeometry relative="1" as="geometry">
                        <Array as="points">
                            <mxPoint x="-935" y="665"/>
                        </Array>
                    </mxGeometry>
                </mxCell>
                <mxCell id="59" style="edgeStyle=orthogonalEdgeStyle;curved=0;sketch=1;orthogonalLoop=1;jettySize=auto;html=1;exitX=1;exitY=0.5;exitDx=0;exitDy=0;entryX=0;entryY=0.5;entryDx=0;entryDy=0;entryPerimeter=0;strokeColor=#457B9D;fillColor=#A8DADC;fontColor=#FFFFFF;labelBackgroundColor=#F1FAEE;" edge="1" parent="1" source="61" target="74">
                    <mxGeometry relative="1" as="geometry"/>
                </mxCell>
                <mxCell id="60" style="edgeStyle=orthogonalEdgeStyle;curved=0;rounded=1;sketch=1;orthogonalLoop=1;jettySize=auto;html=1;exitX=0.75;exitY=0;exitDx=0;exitDy=0;strokeColor=#457B9D;fillColor=#A8DADC;fontColor=#FFFFFF;labelBackgroundColor=#F1FAEE;" edge="1" parent="1" source="61">
                    <mxGeometry relative="1" as="geometry">
                        <mxPoint x="-960" y="560" as="targetPoint"/>
                    </mxGeometry>
                </mxCell>
                <mxCell id="61" value="Controller" style="swimlane;fontStyle=0;childLayout=stackLayout;horizontal=1;startSize=30;horizontalStack=0;resizeParent=1;resizeParentMax=0;resizeLast=0;collapsible=1;marginBottom=0;fontFamily=Comic Sans MS;fontSize=18;fillColor=#A8DADC;strokeColor=#457B9D;fontColor=#FFFFFF;sketch=1;rounded=1;" vertex="1" parent="1">
                    <mxGeometry x="-1030" y="710" width="190" height="60" as="geometry"/>
                </mxCell>
                <mxCell id="62" value="updateEvent()" style="text;strokeColor=none;fillColor=none;align=left;verticalAlign=middle;spacingLeft=4;spacingRight=4;overflow=hidden;points=[[0,0.5],[1,0.5]];portConstraint=eastwest;rotatable=0;fontFamily=Comic Sans MS;fontSize=18;fontColor=#FFFFFF;sketch=1;rounded=1;" vertex="1" parent="61">
                    <mxGeometry y="30" width="190" height="30" as="geometry"/>
                </mxCell>
                <mxCell id="63" style="edgeStyle=none;html=1;entryX=0.5;entryY=0;entryDx=0;entryDy=0;fontFamily=Comic Sans MS;fontSize=18;strokeColor=#457B9D;fontColor=#FFFFFF;sketch=1;labelBackgroundColor=#F1FAEE;" edge="1" parent="1" source="62" target="55">
                    <mxGeometry relative="1" as="geometry"/>
                </mxCell>
                <mxCell id="64" value="DeviceData" style="swimlane;fontStyle=0;childLayout=stackLayout;horizontal=1;startSize=30;horizontalStack=0;resizeParent=1;resizeParentMax=0;resizeLast=0;collapsible=1;marginBottom=0;fontFamily=Comic Sans MS;fontSize=18;fillColor=#A8DADC;strokeColor=#457B9D;fontColor=#FFFFFF;sketch=1;rounded=1;" vertex="1" parent="1">
                    <mxGeometry x="-1590" y="620" width="190" height="90" as="geometry"/>
                </mxCell>
                <mxCell id="65" value="devName : std::string" style="text;strokeColor=none;fillColor=none;align=left;verticalAlign=middle;spacingLeft=4;spacingRight=4;overflow=hidden;points=[[0,0.5],[1,0.5]];portConstraint=eastwest;rotatable=0;fontFamily=Comic Sans MS;fontSize=18;fontColor=#FFFFFF;sketch=1;rounded=1;" vertex="1" parent="64">
                    <mxGeometry y="30" width="190" height="30" as="geometry"/>
                </mxCell>
                <mxCell id="66" value="devData : std::vector" style="text;strokeColor=none;fillColor=none;align=left;verticalAlign=middle;spacingLeft=4;spacingRight=4;overflow=hidden;points=[[0,0.5],[1,0.5]];portConstraint=eastwest;rotatable=0;fontFamily=Comic Sans MS;fontSize=18;fontColor=#FFFFFF;sketch=1;rounded=1;" vertex="1" parent="64">
                    <mxGeometry y="60" width="190" height="30" as="geometry"/>
                </mxCell>
                <mxCell id="67" style="edgeStyle=none;html=1;exitX=0;exitY=0.5;exitDx=0;exitDy=0;entryX=0.217;entryY=1.059;entryDx=0;entryDy=0;entryPerimeter=0;fontFamily=Comic Sans MS;fontSize=18;strokeColor=#457B9D;fontColor=#FFFFFF;sketch=1;labelBackgroundColor=#F1FAEE;" edge="1" parent="1" source="53" target="66">
                    <mxGeometry relative="1" as="geometry">
                        <Array as="points">
                            <mxPoint x="-1549" y="865"/>
                        </Array>
                    </mxGeometry>
                </mxCell>
                <mxCell id="68" value="RFID" style="swimlane;fontStyle=0;childLayout=stackLayout;horizontal=1;startSize=30;horizontalStack=0;resizeParent=1;resizeParentMax=0;resizeLast=0;collapsible=1;marginBottom=0;fontFamily=Comic Sans MS;fontSize=18;fillColor=#A8DADC;strokeColor=#457B9D;fontColor=#FFFFFF;sketch=1;rounded=1;" vertex="1" parent="1">
                    <mxGeometry x="-1360" y="970" width="190" height="90" as="geometry"/>
                </mxCell>
                <mxCell id="69" value="request()" style="text;strokeColor=none;fillColor=none;align=left;verticalAlign=middle;spacingLeft=4;spacingRight=4;overflow=hidden;points=[[0,0.5],[1,0.5]];portConstraint=eastwest;rotatable=0;fontFamily=Comic Sans MS;fontSize=18;fontColor=#FFFFFF;sketch=1;rounded=1;" vertex="1" parent="68">
                    <mxGeometry y="30" width="190" height="30" as="geometry"/>
                </mxCell>
                <mxCell id="70" value="get_card_serial()" style="text;strokeColor=none;fillColor=none;align=left;verticalAlign=middle;spacingLeft=4;spacingRight=4;overflow=hidden;points=[[0,0.5],[1,0.5]];portConstraint=eastwest;rotatable=0;fontFamily=Comic Sans MS;fontSize=18;fontColor=#FFFFFF;sketch=1;rounded=1;" vertex="1" parent="68">
                    <mxGeometry y="60" width="190" height="30" as="geometry"/>
                </mxCell>
                <mxCell id="71" value="" style="endArrow=blockThin;html=1;fontFamily=Comic Sans MS;fontSize=18;entryX=0.5;entryY=0;entryDx=0;entryDy=0;endFill=0;strokeColor=#457B9D;fontColor=#FFFFFF;sketch=1;labelBackgroundColor=#F1FAEE;" edge="1" parent="1" target="68">
                    <mxGeometry width="50" height="50" relative="1" as="geometry">
                        <mxPoint x="-1265" y="910.9999999999998" as="sourcePoint"/>
                        <mxPoint x="-1120" y="830" as="targetPoint"/>
                    </mxGeometry>
                </mxCell>
                <mxCell id="72" value="" style="endArrow=classic;html=1;entryX=0.472;entryY=1.02;entryDx=0;entryDy=0;entryPerimeter=0;exitX=0;exitY=0.5;exitDx=0;exitDy=0;strokeColor=#457B9D;fontColor=#FFFFFF;sketch=1;labelBackgroundColor=#F1FAEE;" edge="1" parent="1" source="50" target="66">
                    <mxGeometry width="50" height="50" relative="1" as="geometry">
                        <mxPoint x="-1510" y="780" as="sourcePoint"/>
                        <mxPoint x="-1460" y="730" as="targetPoint"/>
                        <Array as="points">
                            <mxPoint x="-1500" y="740"/>
                        </Array>
                    </mxGeometry>
                </mxCell>
                <mxCell id="73" style="edgeStyle=orthogonalEdgeStyle;curved=0;rounded=1;sketch=1;orthogonalLoop=1;jettySize=auto;html=1;exitX=0.5;exitY=0;exitDx=0;exitDy=0;exitPerimeter=0;strokeColor=#457B9D;fillColor=#A8DADC;fontColor=#FFFFFF;labelBackgroundColor=#F1FAEE;" edge="1" parent="1" source="74">
                    <mxGeometry relative="1" as="geometry">
                        <mxPoint x="-645.5714285714284" y="590" as="targetPoint"/>
                    </mxGeometry>
                </mxCell>
                <mxCell id="74" value="&lt;font face=&quot;Comic Sans MS&quot; style=&quot;font-size: 18px&quot;&gt;DataBase&lt;/font&gt;" style="shape=cylinder3;whiteSpace=wrap;html=1;boundedLbl=1;backgroundOutline=1;size=15;sketch=1;strokeColor=#457B9D;fillColor=#A8DADC;fontColor=#FFFFFF;rounded=1;" vertex="1" parent="1">
                    <mxGeometry x="-730" y="700" width="170" height="80" as="geometry"/>
                </mxCell>
                <mxCell id="75" value="Memberinfo" style="swimlane;fontStyle=0;childLayout=stackLayout;horizontal=1;startSize=30;horizontalStack=0;resizeParent=1;resizeParentMax=0;resizeLast=0;collapsible=1;marginBottom=0;fontFamily=Comic Sans MS;fontSize=18;fillColor=#A8DADC;strokeColor=#457B9D;fontColor=#FFFFFF;sketch=1;rounded=1;" vertex="1" parent="1">
                    <mxGeometry x="-730" y="405" width="190" height="180" as="geometry"/>
                </mxCell>
                <mxCell id="76" value="id : int" style="text;strokeColor=none;fillColor=none;align=left;verticalAlign=middle;spacingLeft=4;spacingRight=4;overflow=hidden;points=[[0,0.5],[1,0.5]];portConstraint=eastwest;rotatable=0;fontFamily=Comic Sans MS;fontSize=18;fontColor=#FFFFFF;sketch=1;rounded=1;" vertex="1" parent="75">
                    <mxGeometry y="30" width="190" height="30" as="geometry"/>
                </mxCell>
                <mxCell id="77" value="name[10] : char" style="text;strokeColor=none;fillColor=none;align=left;verticalAlign=middle;spacingLeft=4;spacingRight=4;overflow=hidden;points=[[0,0.5],[1,0.5]];portConstraint=eastwest;rotatable=0;fontFamily=Comic Sans MS;fontSize=18;fontColor=#FFFFFF;sketch=1;rounded=1;" vertex="1" parent="75">
                    <mxGeometry y="60" width="190" height="30" as="geometry"/>
                </mxCell>
                <mxCell id="78" value="address[40] : char" style="text;strokeColor=none;fillColor=none;align=left;verticalAlign=middle;spacingLeft=4;spacingRight=4;overflow=hidden;points=[[0,0.5],[1,0.5]];portConstraint=eastwest;rotatable=0;fontFamily=Comic Sans MS;fontSize=18;fontColor=#FFFFFF;sketch=1;rounded=1;" vertex="1" parent="75">
                    <mxGeometry y="90" width="190" height="30" as="geometry"/>
                </mxCell>
                <mxCell id="79" value="phoneNum[15] : char" style="text;strokeColor=none;fillColor=none;align=left;verticalAlign=middle;spacingLeft=4;spacingRight=4;overflow=hidden;points=[[0,0.5],[1,0.5]];portConstraint=eastwest;rotatable=0;fontFamily=Comic Sans MS;fontSize=18;fontColor=#FFFFFF;sketch=1;rounded=1;" vertex="1" parent="75">
                    <mxGeometry y="120" width="190" height="30" as="geometry"/>
                </mxCell>
                <mxCell id="80" value="cardNum[5] : int" style="text;strokeColor=none;fillColor=none;align=left;verticalAlign=middle;spacingLeft=4;spacingRight=4;overflow=hidden;points=[[0,0.5],[1,0.5]];portConstraint=eastwest;rotatable=0;fontFamily=Comic Sans MS;fontSize=18;fontColor=#FFFFFF;sketch=1;rounded=1;" vertex="1" parent="75">
                    <mxGeometry y="150" width="190" height="30" as="geometry"/>
                </mxCell>
                <mxCell id="81" value="Member Manage&#10;Service" style="swimlane;fontStyle=0;childLayout=stackLayout;horizontal=1;startSize=40;horizontalStack=0;resizeParent=1;resizeParentMax=0;resizeLast=0;collapsible=1;marginBottom=0;fontFamily=Comic Sans MS;fontSize=18;fillColor=#A8DADC;strokeColor=#457B9D;fontColor=#FFFFFF;sketch=1;rounded=1;" vertex="1" parent="1">
                    <mxGeometry x="-1070" y="485" width="210" height="70" as="geometry"/>
                </mxCell>
                <mxCell id="82" value="updateEvent()" style="text;strokeColor=none;fillColor=none;align=left;verticalAlign=middle;spacingLeft=4;spacingRight=4;overflow=hidden;points=[[0,0.5],[1,0.5]];portConstraint=eastwest;rotatable=0;fontFamily=Comic Sans MS;fontSize=18;fontColor=#FFFFFF;sketch=1;rounded=1;" vertex="1" parent="81">
                    <mxGeometry y="40" width="210" height="30" as="geometry"/>
                </mxCell>
                <mxCell id="83" style="edgeStyle=orthogonalEdgeStyle;curved=0;rounded=1;sketch=1;orthogonalLoop=1;jettySize=auto;html=1;exitX=0;exitY=0.5;exitDx=0;exitDy=0;entryX=0.855;entryY=0;entryDx=0;entryDy=4.35;entryPerimeter=0;strokeColor=#457B9D;fillColor=#A8DADC;fontColor=#FFFFFF;labelBackgroundColor=#F1FAEE;" edge="1" parent="1" source="85" target="74">
                    <mxGeometry relative="1" as="geometry"/>
                </mxCell>
                <mxCell id="84" style="edgeStyle=orthogonalEdgeStyle;curved=0;rounded=1;sketch=1;orthogonalLoop=1;jettySize=auto;html=1;exitX=0;exitY=0.5;exitDx=0;exitDy=0;strokeColor=#457B9D;fillColor=#A8DADC;fontColor=#FFFFFF;labelBackgroundColor=#F1FAEE;" edge="1" parent="1" source="85">
                    <mxGeometry relative="1" as="geometry">
                        <mxPoint x="-590" y="590" as="targetPoint"/>
                    </mxGeometry>
                </mxCell>
                <mxCell id="85" value="MemberEntity" style="swimlane;fontStyle=0;childLayout=stackLayout;horizontal=1;startSize=30;horizontalStack=0;resizeParent=1;resizeParentMax=0;resizeLast=0;collapsible=1;marginBottom=0;fontFamily=Comic Sans MS;fontSize=18;fillColor=#A8DADC;strokeColor=#457B9D;fontColor=#FFFFFF;sketch=1;rounded=1;" vertex="1" parent="1">
                    <mxGeometry x="-508" y="620" width="190" height="60" as="geometry"/>
                </mxCell>
                <mxCell id="86" value="updateEvent()" style="text;strokeColor=none;fillColor=none;align=left;verticalAlign=middle;spacingLeft=4;spacingRight=4;overflow=hidden;points=[[0,0.5],[1,0.5]];portConstraint=eastwest;rotatable=0;fontFamily=Comic Sans MS;fontSize=18;fontColor=#FFFFFF;sketch=1;rounded=1;" vertex="1" parent="85">
                    <mxGeometry y="30" width="190" height="30" as="geometry"/>
                </mxCell>
                <mxCell id="87" style="edgeStyle=orthogonalEdgeStyle;curved=0;rounded=1;sketch=1;orthogonalLoop=1;jettySize=auto;html=1;entryX=0;entryY=0.5;entryDx=0;entryDy=0;strokeColor=#457B9D;fillColor=#A8DADC;fontColor=#FFFFFF;exitX=1;exitY=0.5;exitDx=0;exitDy=0;labelBackgroundColor=#F1FAEE;" edge="1" parent="1" source="82" target="79">
                    <mxGeometry relative="1" as="geometry">
                        <mxPoint x="-830" y="540" as="sourcePoint"/>
                    </mxGeometry>
                </mxCell>
                <mxCell id="88" style="edgeStyle=orthogonalEdgeStyle;curved=0;rounded=1;sketch=1;orthogonalLoop=1;jettySize=auto;html=1;exitX=1;exitY=0.5;exitDx=0;exitDy=0;entryX=0;entryY=0.25;entryDx=0;entryDy=0;strokeColor=#457B9D;fillColor=#A8DADC;fontColor=#FFFFFF;labelBackgroundColor=#F1FAEE;" edge="1" parent="1" source="82" target="85">
                    <mxGeometry relative="1" as="geometry">
                        <Array as="points">
                            <mxPoint x="-810" y="540"/>
                            <mxPoint x="-810" y="635"/>
                        </Array>
                    </mxGeometry>
                </mxCell>
                <mxCell id="89" value="Button" style="swimlane;fontStyle=0;childLayout=stackLayout;horizontal=1;startSize=30;horizontalStack=0;resizeParent=1;resizeParentMax=0;resizeLast=0;collapsible=1;marginBottom=0;fontFamily=Comic Sans MS;fontSize=18;fillColor=#A8DADC;strokeColor=#457B9D;fontColor=#FFFFFF;sketch=1;rounded=1;" vertex="1" parent="1">
                    <mxGeometry x="-1600" y="970" width="190" height="90" as="geometry"/>
                </mxCell>
                <mxCell id="90" value="request()" style="text;strokeColor=none;fillColor=none;align=left;verticalAlign=middle;spacingLeft=4;spacingRight=4;overflow=hidden;points=[[0,0.5],[1,0.5]];portConstraint=eastwest;rotatable=0;fontFamily=Comic Sans MS;fontSize=18;fontColor=#FFFFFF;sketch=1;rounded=1;" vertex="1" parent="89">
                    <mxGeometry y="30" width="190" height="30" as="geometry"/>
                </mxCell>
                <mxCell id="91" value="get_card_serial()" style="text;strokeColor=none;fillColor=none;align=left;verticalAlign=middle;spacingLeft=4;spacingRight=4;overflow=hidden;points=[[0,0.5],[1,0.5]];portConstraint=eastwest;rotatable=0;fontFamily=Comic Sans MS;fontSize=18;fontColor=#FFFFFF;sketch=1;rounded=1;" vertex="1" parent="89">
                    <mxGeometry y="60" width="190" height="30" as="geometry"/>
                </mxCell>
            </root>
        </mxGraphModel>
    </diagram>
</mxfile>